<svg width="631" height="549" viewBox="0 0 631 549" fill="none" xmlns="http://www.w3.org/2000/svg">
<g opacity="0.670085">
<path opacity="0.9" fill-rule="evenodd" clip-rule="evenodd" d="M175.972 36.6378C271.339 -24.816 620.312 150.072 609.645 212.969C598.977 275.865 555.6 536.923 460.433 544.988C365.266 553.053 142.646 464.722 75.0303 378.748C7.41449 292.774 80.6058 98.0916 175.972 36.6378Z" fill="#0074E4"/>
</g>
<path opacity="0.9" fill-rule="evenodd" clip-rule="evenodd" d="M131.363 30.4225C229.33 -34.696 609.257 117.654 601.303 179.682C593.349 241.709 561.29 499.111 460.672 512.049C360.054 524.988 118.934 450.503 42.5273 370.086C-33.8793 289.668 33.3967 95.541 131.363 30.4225Z" fill="#0074E4"/>
<rect x="80" y="326" width="224" height="58" rx="29" fill="white"/>
<path d="M130.367 358.363H125.744L124.865 361H122.062L126.825 348.203H129.269L134.059 361H131.255L130.367 358.363ZM126.456 356.228H129.655L128.047 351.438L126.456 356.228ZM144.226 356.333C144.226 357.798 143.892 358.973 143.224 359.857C142.562 360.736 141.665 361.176 140.534 361.176C139.573 361.176 138.797 360.842 138.205 360.174V364.656H135.665V351.49H138.021L138.108 352.422C138.724 351.684 139.526 351.314 140.517 351.314C141.688 351.314 142.6 351.748 143.25 352.615C143.9 353.482 144.226 354.678 144.226 356.201V356.333ZM141.686 356.148C141.686 355.264 141.527 354.581 141.211 354.101C140.9 353.62 140.446 353.38 139.849 353.38C139.052 353.38 138.504 353.685 138.205 354.294V358.188C138.516 358.814 139.069 359.128 139.866 359.128C141.079 359.128 141.686 358.135 141.686 356.148ZM155.368 356.333C155.368 357.798 155.034 358.973 154.366 359.857C153.704 360.736 152.808 361.176 151.677 361.176C150.716 361.176 149.939 360.842 149.348 360.174V364.656H146.808V351.49H149.163L149.251 352.422C149.866 351.684 150.669 351.314 151.659 351.314C152.831 351.314 153.742 351.748 154.393 352.615C155.043 353.482 155.368 354.678 155.368 356.201V356.333ZM152.828 356.148C152.828 355.264 152.67 354.581 152.354 354.101C152.043 353.62 151.589 353.38 150.991 353.38C150.194 353.38 149.646 353.685 149.348 354.294V358.188C149.658 358.814 150.212 359.128 151.009 359.128C152.222 359.128 152.828 358.135 152.828 356.148ZM160.631 361H158.082V347.5H160.631V361ZM167.282 357.405L169.04 351.49H171.765L167.941 362.477L167.73 362.978C167.162 364.22 166.225 364.841 164.918 364.841C164.549 364.841 164.174 364.785 163.793 364.674V362.749L164.18 362.758C164.66 362.758 165.018 362.685 165.252 362.538C165.492 362.392 165.68 362.148 165.814 361.809L166.113 361.026L162.782 351.49H165.516L167.282 357.405ZM189.822 361H187.186L182.053 352.58V361H179.416V348.203H182.053L187.194 356.641V348.203H189.822V361ZM192.562 356.157C192.562 355.214 192.744 354.373 193.107 353.635C193.471 352.896 193.992 352.325 194.672 351.921C195.357 351.517 196.151 351.314 197.054 351.314C198.337 351.314 199.383 351.707 200.191 352.492C201.006 353.277 201.46 354.344 201.554 355.691L201.571 356.342C201.571 357.801 201.164 358.973 200.35 359.857C199.535 360.736 198.442 361.176 197.071 361.176C195.7 361.176 194.604 360.736 193.784 359.857C192.97 358.979 192.562 357.783 192.562 356.271V356.157ZM195.103 356.342C195.103 357.244 195.272 357.936 195.612 358.416C195.952 358.891 196.438 359.128 197.071 359.128C197.687 359.128 198.167 358.894 198.513 358.425C198.858 357.95 199.031 357.194 199.031 356.157C199.031 355.272 198.858 354.587 198.513 354.101C198.167 353.614 197.681 353.371 197.054 353.371C196.433 353.371 195.952 353.614 195.612 354.101C195.272 354.581 195.103 355.328 195.103 356.342ZM212.406 357.546L213.654 351.49H216.106L213.681 361H211.554L209.752 355.015L207.95 361H205.832L203.406 351.49H205.858L207.098 357.537L208.838 351.49H210.675L212.406 357.546Z" fill="#111111"/>
<path d="M262.366 355.422L255.258 348.314C255.056 348.111 254.785 348 254.497 348C254.208 348 253.938 348.112 253.735 348.314L253.09 348.96C252.887 349.162 252.775 349.433 252.775 349.721C252.775 350.01 252.887 350.289 253.09 350.492L257.236 354.647H244.063C243.469 354.647 243 355.112 243 355.706V356.619C243 357.213 243.469 357.725 244.063 357.725H257.283L253.09 361.903C252.887 362.106 252.776 362.369 252.776 362.658C252.776 362.946 252.887 363.213 253.09 363.416L253.735 364.059C253.938 364.262 254.208 364.372 254.497 364.372C254.785 364.372 255.056 364.26 255.259 364.058L262.366 356.95C262.569 356.747 262.681 356.475 262.68 356.186C262.681 355.897 262.569 355.625 262.366 355.422Z" fill="#FF6E43"/>
<path d="M96.333 213.987H90.498V227H83.1738V191.453H96.3818C100.581 191.453 103.82 192.389 106.099 194.261C108.377 196.132 109.517 198.777 109.517 202.195C109.517 204.62 108.988 206.647 107.93 208.274C106.888 209.886 105.301 211.172 103.169 212.132L110.859 226.658V227H102.998L96.333 213.987ZM90.498 208.055H96.4062C98.2454 208.055 99.6696 207.591 100.679 206.663C101.688 205.719 102.192 204.425 102.192 202.781C102.192 201.105 101.712 199.786 100.752 198.826C99.8079 197.866 98.3512 197.386 96.3818 197.386H90.498V208.055ZM127.635 227.488C123.761 227.488 120.604 226.3 118.162 223.924C115.737 221.548 114.525 218.382 114.525 214.427V213.743C114.525 211.09 115.037 208.722 116.063 206.639C117.088 204.539 118.537 202.928 120.409 201.805C122.297 200.665 124.445 200.096 126.854 200.096C130.467 200.096 133.307 201.235 135.374 203.514C137.458 205.792 138.499 209.023 138.499 213.206V216.087H121.678C121.906 217.812 122.59 219.196 123.729 220.237C124.884 221.279 126.341 221.8 128.099 221.8C130.817 221.8 132.941 220.815 134.471 218.846L137.938 222.728C136.88 224.225 135.448 225.397 133.641 226.243C131.834 227.073 129.832 227.488 127.635 227.488ZM126.829 205.809C125.43 205.809 124.29 206.281 123.411 207.225C122.549 208.169 121.995 209.52 121.751 211.277H131.566V210.716C131.533 209.153 131.11 207.949 130.296 207.103C129.482 206.24 128.327 205.809 126.829 205.809ZM145.29 227V205.76H141.359V200.584H145.29V198.338C145.29 195.376 146.136 193.081 147.829 191.453C149.538 189.809 151.922 188.987 154.982 188.987C155.959 188.987 157.155 189.15 158.571 189.476L158.498 194.944C157.912 194.798 157.196 194.725 156.349 194.725C153.696 194.725 152.37 195.97 152.37 198.46V200.584H157.619V205.76H152.37V227H145.29ZM173.687 227.488C169.813 227.488 166.655 226.3 164.214 223.924C161.789 221.548 160.576 218.382 160.576 214.427V213.743C160.576 211.09 161.089 208.722 162.114 206.639C163.14 204.539 164.588 202.928 166.46 201.805C168.348 200.665 170.496 200.096 172.905 200.096C176.519 200.096 179.359 201.235 181.426 203.514C183.509 205.792 184.551 209.023 184.551 213.206V216.087H167.729C167.957 217.812 168.641 219.196 169.78 220.237C170.936 221.279 172.393 221.8 174.15 221.8C176.868 221.8 178.993 220.815 180.522 218.846L183.989 222.728C182.931 224.225 181.499 225.397 179.692 226.243C177.886 227.073 175.884 227.488 173.687 227.488ZM172.881 205.809C171.481 205.809 170.342 206.281 169.463 207.225C168.6 208.169 168.047 209.52 167.803 211.277H177.617V210.716C177.585 209.153 177.161 207.949 176.348 207.103C175.534 206.24 174.378 205.809 172.881 205.809ZM204.256 207.2C203.296 207.07 202.45 207.005 201.717 207.005C199.048 207.005 197.298 207.908 196.468 209.715V227H189.412V200.584H196.077L196.273 203.733C197.689 201.308 199.65 200.096 202.157 200.096C202.938 200.096 203.67 200.201 204.354 200.413L204.256 207.2ZM204.626 223.533C204.626 222.41 205 221.499 205.749 220.799C206.514 220.099 207.466 219.749 208.605 219.749C209.761 219.749 210.713 220.099 211.462 220.799C212.227 221.499 212.609 222.41 212.609 223.533C212.609 224.64 212.235 225.543 211.486 226.243C210.737 226.927 209.777 227.269 208.605 227.269C207.45 227.269 206.497 226.927 205.749 226.243C205 225.543 204.626 224.64 204.626 223.533ZM254.779 211.595H240.716V221.116H257.22V227H233.392V191.453H257.171V197.386H240.716V205.857H254.779V211.595ZM277.194 227C276.868 226.365 276.632 225.576 276.486 224.632C274.777 226.536 272.555 227.488 269.821 227.488C267.233 227.488 265.085 226.74 263.376 225.242C261.683 223.745 260.837 221.857 260.837 219.578C260.837 216.779 261.87 214.63 263.937 213.133C266.021 211.635 269.023 210.879 272.946 210.862H276.193V209.349C276.193 208.128 275.876 207.151 275.241 206.419C274.622 205.687 273.638 205.32 272.287 205.32C271.099 205.32 270.163 205.605 269.479 206.175C268.812 206.744 268.478 207.526 268.478 208.519H261.423C261.423 206.989 261.895 205.573 262.839 204.271C263.783 202.968 265.117 201.951 266.842 201.219C268.568 200.47 270.505 200.096 272.653 200.096C275.908 200.096 278.488 200.918 280.392 202.562C282.313 204.189 283.273 206.484 283.273 209.446V220.896C283.289 223.403 283.639 225.299 284.323 226.585V227H277.194ZM271.359 222.093C272.401 222.093 273.361 221.865 274.24 221.409C275.119 220.937 275.77 220.311 276.193 219.529V214.988H273.556C270.024 214.988 268.145 216.209 267.917 218.65L267.892 219.065C267.892 219.944 268.202 220.669 268.82 221.238C269.438 221.808 270.285 222.093 271.359 222.093ZM304.37 207.2C303.41 207.07 302.563 207.005 301.831 207.005C299.162 207.005 297.412 207.908 296.582 209.715V227H289.526V200.584H296.191L296.387 203.733C297.803 201.308 299.764 200.096 302.271 200.096C303.052 200.096 303.784 200.201 304.468 200.413L304.37 207.2ZM315.116 200.584L315.335 203.636C317.223 201.276 319.754 200.096 322.928 200.096C325.728 200.096 327.811 200.918 329.178 202.562C330.545 204.205 331.245 206.663 331.278 209.935V227H324.222V210.105C324.222 208.608 323.896 207.526 323.245 206.858C322.594 206.175 321.512 205.833 319.998 205.833C318.013 205.833 316.523 206.679 315.531 208.372V227H308.475V200.584H315.116ZM337.848 223.533C337.848 222.41 338.223 221.499 338.971 220.799C339.736 220.099 340.688 219.749 341.828 219.749C342.983 219.749 343.936 220.099 344.684 220.799C345.449 221.499 345.832 222.41 345.832 223.533C345.832 224.64 345.457 225.543 344.709 226.243C343.96 226.927 343 227.269 341.828 227.269C340.672 227.269 339.72 226.927 338.971 226.243C338.223 225.543 337.848 224.64 337.848 223.533ZM379.774 213.987H373.939V227H366.615V191.453H379.823C384.022 191.453 387.261 192.389 389.539 194.261C391.818 196.132 392.957 198.777 392.957 202.195C392.957 204.62 392.428 206.647 391.37 208.274C390.329 209.886 388.742 211.172 386.61 212.132L394.3 226.658V227H386.439L379.774 213.987ZM373.939 208.055H379.847C381.686 208.055 383.11 207.591 384.119 206.663C385.129 205.719 385.633 204.425 385.633 202.781C385.633 201.105 385.153 199.786 384.193 198.826C383.249 197.866 381.792 197.386 379.823 197.386H373.939V208.055ZM411.076 227.488C407.202 227.488 404.045 226.3 401.603 223.924C399.178 221.548 397.965 218.382 397.965 214.427V213.743C397.965 211.09 398.478 208.722 399.504 206.639C400.529 204.539 401.978 202.928 403.849 201.805C405.737 200.665 407.886 200.096 410.295 200.096C413.908 200.096 416.748 201.235 418.815 203.514C420.898 205.792 421.94 209.023 421.94 213.206V216.087H405.119C405.347 217.812 406.03 219.196 407.17 220.237C408.325 221.279 409.782 221.8 411.54 221.8C414.258 221.8 416.382 220.815 417.912 218.846L421.379 222.728C420.321 224.225 418.888 225.397 417.082 226.243C415.275 227.073 413.273 227.488 411.076 227.488ZM410.27 205.809C408.87 205.809 407.731 206.281 406.852 207.225C405.99 208.169 405.436 209.52 405.192 211.277H415.007V210.716C414.974 209.153 414.551 207.949 413.737 207.103C412.923 206.24 411.768 205.809 410.27 205.809ZM450.581 214.036C450.581 218.105 449.653 221.368 447.798 223.826C445.959 226.268 443.468 227.488 440.327 227.488C437.658 227.488 435.501 226.561 433.857 224.705V237.156H426.802V200.584H433.345L433.589 203.172C435.298 201.121 437.528 200.096 440.278 200.096C443.534 200.096 446.064 201.3 447.871 203.709C449.678 206.118 450.581 209.438 450.581 213.67V214.036ZM443.525 213.523C443.525 211.066 443.086 209.17 442.207 207.835C441.344 206.5 440.083 205.833 438.423 205.833C436.209 205.833 434.688 206.679 433.857 208.372V219.188C434.72 220.929 436.258 221.8 438.472 221.8C441.841 221.8 443.525 219.041 443.525 213.523ZM467.967 227.488C464.093 227.488 460.936 226.3 458.494 223.924C456.069 221.548 454.857 218.382 454.857 214.427V213.743C454.857 211.09 455.369 208.722 456.395 206.639C457.42 204.539 458.869 202.928 460.741 201.805C462.629 200.665 464.777 200.096 467.186 200.096C470.799 200.096 473.639 201.235 475.706 203.514C477.79 205.792 478.831 209.023 478.831 213.206V216.087H462.01C462.238 217.812 462.922 219.196 464.061 220.237C465.216 221.279 466.673 221.8 468.431 221.8C471.149 221.8 473.273 220.815 474.803 218.846L478.27 222.728C477.212 224.225 475.78 225.397 473.973 226.243C472.166 227.073 470.164 227.488 467.967 227.488ZM467.161 205.809C465.762 205.809 464.622 206.281 463.743 207.225C462.881 208.169 462.327 209.52 462.083 211.277H471.898V210.716C471.865 209.153 471.442 207.949 470.628 207.103C469.814 206.24 468.659 205.809 467.161 205.809ZM499.001 227C498.675 226.365 498.439 225.576 498.293 224.632C496.584 226.536 494.362 227.488 491.628 227.488C489.04 227.488 486.891 226.74 485.182 225.242C483.49 223.745 482.643 221.857 482.643 219.578C482.643 216.779 483.677 214.63 485.744 213.133C487.827 211.635 490.83 210.879 494.753 210.862H498V209.349C498 208.128 497.682 207.151 497.048 206.419C496.429 205.687 495.444 205.32 494.093 205.32C492.905 205.32 491.969 205.605 491.286 206.175C490.618 206.744 490.285 207.526 490.285 208.519H483.229C483.229 206.989 483.701 205.573 484.645 204.271C485.589 202.968 486.924 201.951 488.649 201.219C490.374 200.47 492.311 200.096 494.46 200.096C497.715 200.096 500.295 200.918 502.199 202.562C504.119 204.189 505.08 206.484 505.08 209.446V220.896C505.096 223.403 505.446 225.299 506.13 226.585V227H499.001ZM493.166 222.093C494.207 222.093 495.168 221.865 496.047 221.409C496.925 220.937 497.576 220.311 498 219.529V214.988H495.363C491.831 214.988 489.951 216.209 489.723 218.65L489.699 219.065C489.699 219.944 490.008 220.669 490.627 221.238C491.245 221.808 492.091 222.093 493.166 222.093ZM519.78 194.09V200.584H524.297V205.76H519.78V218.943C519.78 219.92 519.967 220.62 520.342 221.043C520.716 221.466 521.432 221.678 522.49 221.678C523.271 221.678 523.963 221.621 524.565 221.507V226.854C523.182 227.277 521.758 227.488 520.293 227.488C515.345 227.488 512.822 224.99 512.725 219.993V205.76H508.867V200.584H512.725V194.09H519.78ZM529.427 223.533C529.427 222.41 529.801 221.499 530.55 220.799C531.315 220.099 532.267 219.749 533.407 219.749C534.562 219.749 535.514 220.099 536.263 220.799C537.028 221.499 537.41 222.41 537.41 223.533C537.41 224.64 537.036 225.543 536.287 226.243C535.539 226.927 534.578 227.269 533.407 227.269C532.251 227.269 531.299 226.927 530.55 226.243C529.801 225.543 529.427 224.64 529.427 223.533Z" fill="white"/>
<path d="M93.3633 280.948C92.8333 281.707 92.0921 282.277 91.1396 282.656C90.1943 283.029 89.0915 283.215 87.8311 283.215C86.5563 283.215 85.4248 282.918 84.4365 282.323C83.4482 281.722 82.682 280.869 82.1377 279.767C81.6006 278.664 81.3249 277.385 81.3105 275.932V274.567C81.3105 272.211 81.8584 270.385 82.9541 269.089C84.057 267.793 85.6038 267.145 87.5947 267.145C89.2275 267.145 90.5417 267.563 91.5371 268.401C92.5326 269.232 93.1413 270.414 93.3633 271.946H91.3008C90.9141 269.877 89.6823 268.842 87.6055 268.842C86.2233 268.842 85.1742 269.329 84.458 270.303C83.749 271.27 83.391 272.673 83.3838 274.514V275.792C83.3838 277.547 83.7848 278.943 84.5869 279.981C85.389 281.013 86.474 281.528 87.8418 281.528C88.6152 281.528 89.292 281.442 89.8721 281.271C90.4521 281.099 90.932 280.809 91.3115 280.4V276.888H87.6914V275.212H93.3633V280.948ZM102.109 283.215C100.533 283.215 99.2515 282.699 98.2633 281.668C97.275 280.63 96.7808 279.244 96.7808 277.511V277.146C96.7808 275.993 96.9993 274.965 97.4361 274.062C97.8801 273.153 98.496 272.444 99.2838 271.936C100.079 271.42 100.938 271.162 101.862 271.162C103.373 271.162 104.547 271.66 105.385 272.655C106.223 273.651 106.642 275.076 106.642 276.931V277.758H98.7681C98.7968 278.904 99.1298 279.831 99.7672 280.54C100.412 281.242 101.228 281.593 102.216 281.593C102.918 281.593 103.513 281.45 104 281.163C104.487 280.877 104.913 280.497 105.278 280.024L106.492 280.97C105.518 282.466 104.057 283.215 102.109 283.215ZM101.862 272.795C101.06 272.795 100.387 273.089 99.8424 273.676C99.2981 274.256 98.9615 275.072 98.8326 276.125H104.655V275.975C104.598 274.965 104.325 274.184 103.838 273.633C103.351 273.074 102.693 272.795 101.862 272.795ZM112.434 268.562V271.377H114.604V272.913H112.434V280.121C112.434 280.587 112.53 280.938 112.724 281.174C112.917 281.403 113.247 281.518 113.712 281.518C113.941 281.518 114.256 281.475 114.657 281.389V283C114.135 283.143 113.626 283.215 113.132 283.215C112.244 283.215 111.574 282.946 111.123 282.409C110.672 281.872 110.446 281.109 110.446 280.121V272.913H108.33V271.377H110.446V268.562H112.434ZM129.581 273.16C129.281 273.11 128.955 273.085 128.604 273.085C127.3 273.085 126.416 273.64 125.95 274.75V283H123.963V271.377H125.897L125.929 272.72C126.581 271.681 127.505 271.162 128.7 271.162C129.087 271.162 129.381 271.212 129.581 271.312V273.16ZM136.812 283.215C135.237 283.215 133.955 282.699 132.967 281.668C131.978 280.63 131.484 279.244 131.484 277.511V277.146C131.484 275.993 131.703 274.965 132.14 274.062C132.584 273.153 133.199 272.444 133.987 271.936C134.782 271.42 135.641 271.162 136.565 271.162C138.076 271.162 139.251 271.66 140.089 272.655C140.927 273.651 141.346 275.076 141.346 276.931V277.758H133.472C133.5 278.904 133.833 279.831 134.471 280.54C135.115 281.242 135.931 281.593 136.92 281.593C137.622 281.593 138.216 281.45 138.703 281.163C139.19 280.877 139.616 280.497 139.981 280.024L141.195 280.97C140.221 282.466 138.76 283.215 136.812 283.215ZM136.565 272.795C135.763 272.795 135.09 273.089 134.546 273.676C134.001 274.256 133.665 275.072 133.536 276.125H139.358V275.975C139.301 274.965 139.029 274.184 138.542 273.633C138.055 273.074 137.396 272.795 136.565 272.795ZM154.732 280.261L156.966 271.377H158.954L155.57 283H153.958L151.133 274.191L148.383 283H146.772L143.399 271.377H145.375L147.664 280.078L150.371 271.377H151.971L154.732 280.261ZM168.945 283C168.831 282.771 168.738 282.363 168.666 281.775C167.742 282.735 166.639 283.215 165.357 283.215C164.212 283.215 163.27 282.893 162.532 282.248C161.802 281.596 161.437 280.773 161.437 279.777C161.437 278.567 161.895 277.629 162.812 276.963C163.735 276.29 165.032 275.953 166.7 275.953H168.634V275.04C168.634 274.345 168.426 273.794 168.011 273.386C167.595 272.97 166.983 272.763 166.174 272.763C165.465 272.763 164.87 272.942 164.391 273.3C163.911 273.658 163.671 274.091 163.671 274.6H161.673C161.673 274.02 161.877 273.461 162.285 272.924C162.701 272.38 163.259 271.95 163.961 271.635C164.67 271.32 165.447 271.162 166.292 271.162C167.631 271.162 168.68 271.499 169.439 272.172C170.199 272.838 170.592 273.758 170.621 274.933V280.282C170.621 281.349 170.757 282.198 171.029 282.828V283H168.945ZM165.647 281.485C166.271 281.485 166.861 281.324 167.42 281.002C167.979 280.68 168.383 280.261 168.634 279.745V277.36H167.076C164.641 277.36 163.424 278.073 163.424 279.498C163.424 280.121 163.632 280.608 164.047 280.959C164.462 281.31 164.996 281.485 165.647 281.485ZM180.14 273.16C179.839 273.11 179.514 273.085 179.163 273.085C177.859 273.085 176.975 273.64 176.509 274.75V283H174.522V271.377H176.456L176.488 272.72C177.14 271.681 178.063 271.162 179.259 271.162C179.646 271.162 179.94 271.212 180.14 271.312V273.16ZM182.065 277.092C182.065 275.309 182.487 273.876 183.332 272.795C184.177 271.706 185.284 271.162 186.652 271.162C188.012 271.162 189.09 271.628 189.885 272.559V266.5H191.872V283H190.046L189.949 281.754C189.154 282.728 188.048 283.215 186.63 283.215C185.284 283.215 184.184 282.663 183.332 281.561C182.487 280.458 182.065 279.018 182.065 277.242V277.092ZM184.052 277.317C184.052 278.635 184.324 279.666 184.868 280.411C185.413 281.156 186.165 281.528 187.124 281.528C188.385 281.528 189.305 280.963 189.885 279.831V274.492C189.291 273.396 188.377 272.849 187.146 272.849C186.172 272.849 185.413 273.225 184.868 273.977C184.324 274.729 184.052 275.842 184.052 277.317ZM200.575 283.215C198.999 283.215 197.717 282.699 196.729 281.668C195.741 280.63 195.247 279.244 195.247 277.511V277.146C195.247 275.993 195.465 274.965 195.902 274.062C196.346 273.153 196.962 272.444 197.75 271.936C198.545 271.42 199.404 271.162 200.328 271.162C201.839 271.162 203.013 271.66 203.851 272.655C204.689 273.651 205.108 275.076 205.108 276.931V277.758H197.234C197.263 278.904 197.596 279.831 198.233 280.54C198.878 281.242 199.694 281.593 200.682 281.593C201.384 281.593 201.979 281.45 202.466 281.163C202.953 280.877 203.379 280.497 203.744 280.024L204.958 280.97C203.984 282.466 202.523 283.215 200.575 283.215ZM200.328 272.795C199.526 272.795 198.853 273.089 198.308 273.676C197.764 274.256 197.427 275.072 197.299 276.125H203.121V275.975C203.064 274.965 202.791 274.184 202.304 273.633C201.817 273.074 201.159 272.795 200.328 272.795ZM207.72 277.092C207.72 275.309 208.143 273.876 208.988 272.795C209.833 271.706 210.939 271.162 212.307 271.162C213.668 271.162 214.745 271.628 215.54 272.559V266.5H217.528V283H215.701L215.605 281.754C214.81 282.728 213.703 283.215 212.285 283.215C210.939 283.215 209.84 282.663 208.988 281.561C208.143 280.458 207.72 279.018 207.72 277.242V277.092ZM209.707 277.317C209.707 278.635 209.979 279.666 210.524 280.411C211.068 281.156 211.82 281.528 212.78 281.528C214.04 281.528 214.96 280.963 215.54 279.831V274.492C214.946 273.396 214.033 272.849 212.801 272.849C211.827 272.849 211.068 273.225 210.524 273.977C209.979 274.729 209.707 275.842 209.707 277.317ZM228.627 283V272.913H226.79V271.377H228.627V270.185C228.627 268.938 228.96 267.975 229.626 267.295C230.292 266.615 231.234 266.274 232.452 266.274C232.91 266.274 233.365 266.335 233.816 266.457L233.708 268.068C233.372 268.004 233.014 267.972 232.634 267.972C231.99 267.972 231.492 268.161 231.141 268.541C230.79 268.913 230.615 269.451 230.615 270.152V271.377H233.096V272.913H230.615V283H228.627ZM235.558 277.081C235.558 275.942 235.78 274.918 236.224 274.009C236.675 273.099 237.298 272.397 238.093 271.903C238.895 271.409 239.808 271.162 240.832 271.162C242.415 271.162 243.693 271.71 244.667 272.806C245.648 273.901 246.139 275.359 246.139 277.178V277.317C246.139 278.449 245.92 279.466 245.483 280.368C245.054 281.263 244.434 281.962 243.625 282.463C242.823 282.964 241.899 283.215 240.854 283.215C239.278 283.215 238 282.667 237.019 281.571C236.045 280.476 235.558 279.025 235.558 277.221V277.081ZM237.556 277.317C237.556 278.606 237.853 279.641 238.447 280.422C239.049 281.202 239.851 281.593 240.854 281.593C241.863 281.593 242.665 281.199 243.26 280.411C243.854 279.616 244.151 278.506 244.151 277.081C244.151 275.806 243.847 274.775 243.238 273.987C242.637 273.192 241.835 272.795 240.832 272.795C239.851 272.795 239.06 273.185 238.458 273.966C237.856 274.746 237.556 275.864 237.556 277.317ZM255.035 273.16C254.734 273.11 254.408 273.085 254.057 273.085C252.754 273.085 251.869 273.64 251.404 274.75V283H249.417V271.377H251.35L251.382 272.72C252.034 271.681 252.958 271.162 254.154 271.162C254.541 271.162 254.834 271.212 255.035 271.312V273.16ZM268.723 283.215C267.148 283.215 265.866 282.699 264.878 281.668C263.889 280.63 263.395 279.244 263.395 277.511V277.146C263.395 275.993 263.614 274.965 264.051 274.062C264.495 273.153 265.11 272.444 265.898 271.936C266.693 271.42 267.552 271.162 268.476 271.162C269.987 271.162 271.162 271.66 272 272.655C272.838 273.651 273.257 275.076 273.257 276.931V277.758H265.383C265.411 278.904 265.744 279.831 266.382 280.54C267.026 281.242 267.842 281.593 268.831 281.593C269.533 281.593 270.127 281.45 270.614 281.163C271.101 280.877 271.527 280.497 271.892 280.024L273.106 280.97C272.132 282.466 270.671 283.215 268.723 283.215ZM268.476 272.795C267.674 272.795 267.001 273.089 266.457 273.676C265.912 274.256 265.576 275.072 265.447 276.125H271.269V275.975C271.212 274.965 270.94 274.184 270.453 273.633C269.966 273.074 269.307 272.795 268.476 272.795ZM280.036 280.304L282.915 271.377H284.946L280.778 283H279.263L275.052 271.377H277.082L280.036 280.304ZM292.316 283.215C290.741 283.215 289.459 282.699 288.471 281.668C287.482 280.63 286.988 279.244 286.988 277.511V277.146C286.988 275.993 287.207 274.965 287.643 274.062C288.087 273.153 288.703 272.444 289.491 271.936C290.286 271.42 291.145 271.162 292.069 271.162C293.58 271.162 294.755 271.66 295.593 272.655C296.431 273.651 296.849 275.076 296.849 276.931V277.758H288.975C289.004 278.904 289.337 279.831 289.974 280.54C290.619 281.242 291.435 281.593 292.424 281.593C293.126 281.593 293.72 281.45 294.207 281.163C294.694 280.877 295.12 280.497 295.485 280.024L296.699 280.97C295.725 282.466 294.264 283.215 292.316 283.215ZM292.069 272.795C291.267 272.795 290.594 273.089 290.05 273.676C289.505 274.256 289.169 275.072 289.04 276.125H294.862V275.975C294.805 274.965 294.533 274.184 294.046 273.633C293.559 273.074 292.9 272.795 292.069 272.795ZM305.563 273.16C305.262 273.11 304.936 273.085 304.585 273.085C303.282 273.085 302.398 273.64 301.932 274.75V283H299.945V271.377H301.878L301.911 272.72C302.562 271.681 303.486 271.162 304.682 271.162C305.069 271.162 305.362 271.212 305.563 271.312V273.16ZM312.182 280.089L314.889 271.377H317.016L312.343 284.794C311.619 286.728 310.47 287.694 308.895 287.694L308.519 287.662L307.777 287.522V285.911L308.314 285.954C308.988 285.954 309.51 285.818 309.883 285.546C310.262 285.274 310.574 284.776 310.817 284.053L311.258 282.871L307.111 271.377H309.281L312.182 280.089ZM332.595 279.917C332.595 279.38 332.391 278.965 331.983 278.671C331.582 278.37 330.876 278.112 329.866 277.897C328.864 277.683 328.065 277.425 327.471 277.124C326.884 276.823 326.447 276.465 326.16 276.05C325.881 275.634 325.741 275.14 325.741 274.567C325.741 273.615 326.142 272.809 326.944 272.15C327.754 271.492 328.785 271.162 330.038 271.162C331.356 271.162 332.423 271.502 333.239 272.183C334.063 272.863 334.475 273.733 334.475 274.793H332.477C332.477 274.249 332.244 273.78 331.778 273.386C331.32 272.992 330.74 272.795 330.038 272.795C329.315 272.795 328.749 272.952 328.341 273.268C327.933 273.583 327.729 273.994 327.729 274.503C327.729 274.983 327.918 275.344 328.298 275.588C328.678 275.831 329.361 276.064 330.35 276.286C331.345 276.508 332.151 276.773 332.767 277.081C333.383 277.389 333.837 277.761 334.131 278.198C334.432 278.628 334.582 279.154 334.582 279.777C334.582 280.816 334.167 281.65 333.336 282.28C332.505 282.903 331.428 283.215 330.103 283.215C329.172 283.215 328.348 283.05 327.632 282.721C326.916 282.391 326.354 281.933 325.945 281.346C325.544 280.751 325.344 280.11 325.344 279.423H327.331C327.367 280.089 327.632 280.619 328.126 281.013C328.627 281.399 329.286 281.593 330.103 281.593C330.855 281.593 331.456 281.442 331.907 281.142C332.366 280.834 332.595 280.425 332.595 279.917ZM345.133 283C345.018 282.771 344.925 282.363 344.853 281.775C343.929 282.735 342.827 283.215 341.545 283.215C340.399 283.215 339.457 282.893 338.719 282.248C337.989 281.596 337.624 280.773 337.624 279.777C337.624 278.567 338.082 277.629 338.999 276.963C339.923 276.29 341.219 275.953 342.887 275.953H344.821V275.04C344.821 274.345 344.613 273.794 344.198 273.386C343.783 272.97 343.17 272.763 342.361 272.763C341.652 272.763 341.058 272.942 340.578 273.3C340.098 273.658 339.858 274.091 339.858 274.6H337.86C337.86 274.02 338.064 273.461 338.472 272.924C338.888 272.38 339.446 271.95 340.148 271.635C340.857 271.32 341.634 271.162 342.479 271.162C343.818 271.162 344.868 271.499 345.627 272.172C346.386 272.838 346.78 273.758 346.808 274.933V280.282C346.808 281.349 346.944 282.198 347.217 282.828V283H345.133ZM341.835 281.485C342.458 281.485 343.049 281.324 343.607 281.002C344.166 280.68 344.57 280.261 344.821 279.745V277.36H343.263C340.829 277.36 339.611 278.073 339.611 279.498C339.611 280.121 339.819 280.608 340.234 280.959C340.649 281.31 341.183 281.485 341.835 281.485ZM352.868 283H350.881V266.5H352.868V283ZM361.668 283.215C360.092 283.215 358.81 282.699 357.822 281.668C356.834 280.63 356.34 279.244 356.34 277.511V277.146C356.34 275.993 356.558 274.965 356.995 274.062C357.439 273.153 358.055 272.444 358.843 271.936C359.638 271.42 360.497 271.162 361.421 271.162C362.932 271.162 364.106 271.66 364.944 272.655C365.782 273.651 366.201 275.076 366.201 276.931V277.758H358.327C358.356 278.904 358.689 279.831 359.326 280.54C359.971 281.242 360.787 281.593 361.775 281.593C362.477 281.593 363.071 281.45 363.558 281.163C364.045 280.877 364.472 280.497 364.837 280.024L366.051 280.97C365.077 282.466 363.616 283.215 361.668 283.215ZM361.421 272.795C360.619 272.795 359.945 273.089 359.401 273.676C358.857 274.256 358.52 275.072 358.391 276.125H364.214V275.975C364.156 274.965 363.884 274.184 363.397 273.633C362.91 273.074 362.251 272.795 361.421 272.795ZM380.201 281.593C380.91 281.593 381.53 281.378 382.06 280.948C382.59 280.519 382.883 279.981 382.94 279.337H384.82C384.785 280.003 384.555 280.637 384.133 281.238C383.71 281.84 383.145 282.32 382.436 282.678C381.734 283.036 380.989 283.215 380.201 283.215C378.618 283.215 377.358 282.688 376.42 281.636C375.489 280.576 375.023 279.129 375.023 277.296V276.963C375.023 275.831 375.231 274.825 375.646 273.944C376.062 273.063 376.656 272.38 377.43 271.893C378.21 271.406 379.131 271.162 380.19 271.162C381.494 271.162 382.575 271.552 383.435 272.333C384.301 273.114 384.763 274.127 384.82 275.373H382.94C382.883 274.621 382.597 274.005 382.081 273.525C381.573 273.038 380.942 272.795 380.19 272.795C379.181 272.795 378.396 273.16 377.838 273.891C377.286 274.614 377.011 275.663 377.011 277.038V277.414C377.011 278.753 377.286 279.785 377.838 280.508C378.389 281.231 379.177 281.593 380.201 281.593ZM387.314 277.081C387.314 275.942 387.536 274.918 387.98 274.009C388.431 273.099 389.054 272.397 389.849 271.903C390.651 271.409 391.564 271.162 392.588 271.162C394.171 271.162 395.449 271.71 396.423 272.806C397.405 273.901 397.895 275.359 397.895 277.178V277.317C397.895 278.449 397.677 279.466 397.24 280.368C396.81 281.263 396.191 281.962 395.381 282.463C394.579 282.964 393.655 283.215 392.61 283.215C391.034 283.215 389.756 282.667 388.775 281.571C387.801 280.476 387.314 279.025 387.314 277.221V277.081ZM389.312 277.317C389.312 278.606 389.609 279.641 390.204 280.422C390.805 281.202 391.607 281.593 392.61 281.593C393.62 281.593 394.422 281.199 395.016 280.411C395.611 279.616 395.908 278.506 395.908 277.081C395.908 275.806 395.603 274.775 394.995 273.987C394.393 273.192 393.591 272.795 392.588 272.795C391.607 272.795 390.816 273.185 390.214 273.966C389.613 274.746 389.312 275.864 389.312 277.317ZM403.053 271.377L403.117 272.838C404.005 271.721 405.166 271.162 406.598 271.162C409.054 271.162 410.293 272.548 410.315 275.319V283H408.327V275.309C408.32 274.471 408.127 273.851 407.747 273.45C407.375 273.049 406.791 272.849 405.996 272.849C405.352 272.849 404.786 273.021 404.299 273.364C403.812 273.708 403.432 274.159 403.16 274.718V283H401.173V271.377H403.053ZM417.932 280.304L420.811 271.377H422.842L418.674 283H417.159L412.948 271.377H414.978L417.932 280.304ZM430.212 283.215C428.637 283.215 427.355 282.699 426.366 281.668C425.378 280.63 424.884 279.244 424.884 277.511V277.146C424.884 275.993 425.102 274.965 425.539 274.062C425.983 273.153 426.599 272.444 427.387 271.936C428.182 271.42 429.041 271.162 429.965 271.162C431.476 271.162 432.651 271.66 433.489 272.655C434.326 273.651 434.745 275.076 434.745 276.931V277.758H426.871C426.9 278.904 427.233 279.831 427.87 280.54C428.515 281.242 429.331 281.593 430.32 281.593C431.021 281.593 431.616 281.45 432.103 281.163C432.59 280.877 433.016 280.497 433.381 280.024L434.595 280.97C433.621 282.466 432.16 283.215 430.212 283.215ZM429.965 272.795C429.163 272.795 428.49 273.089 427.946 273.676C427.401 274.256 427.065 275.072 426.936 276.125H432.758V275.975C432.701 274.965 432.429 274.184 431.942 273.633C431.455 273.074 430.796 272.795 429.965 272.795ZM443.459 273.16C443.158 273.11 442.832 273.085 442.481 273.085C441.178 273.085 440.293 273.64 439.828 274.75V283H437.841V271.377H439.774L439.806 272.72C440.458 271.681 441.382 271.162 442.578 271.162C442.965 271.162 443.258 271.212 443.459 271.312V273.16ZM452.849 279.917C452.849 279.38 452.645 278.965 452.237 278.671C451.836 278.37 451.13 278.112 450.121 277.897C449.118 277.683 448.319 277.425 447.725 277.124C447.138 276.823 446.701 276.465 446.414 276.05C446.135 275.634 445.996 275.14 445.996 274.567C445.996 273.615 446.397 272.809 447.199 272.15C448.008 271.492 449.039 271.162 450.292 271.162C451.61 271.162 452.677 271.502 453.494 272.183C454.317 272.863 454.729 273.733 454.729 274.793H452.731C452.731 274.249 452.498 273.78 452.033 273.386C451.574 272.992 450.994 272.795 450.292 272.795C449.569 272.795 449.003 272.952 448.595 273.268C448.187 273.583 447.983 273.994 447.983 274.503C447.983 274.983 448.173 275.344 448.552 275.588C448.932 275.831 449.616 276.064 450.604 276.286C451.599 276.508 452.405 276.773 453.021 277.081C453.637 277.389 454.092 277.761 454.385 278.198C454.686 278.628 454.836 279.154 454.836 279.777C454.836 280.816 454.421 281.65 453.59 282.28C452.76 282.903 451.682 283.215 450.357 283.215C449.426 283.215 448.602 283.05 447.886 282.721C447.17 282.391 446.608 281.933 446.2 281.346C445.799 280.751 445.598 280.11 445.598 279.423H447.585C447.621 280.089 447.886 280.619 448.38 281.013C448.882 281.399 449.54 281.593 450.357 281.593C451.109 281.593 451.71 281.442 452.162 281.142C452.62 280.834 452.849 280.425 452.849 279.917ZM460.37 283H458.383V271.377H460.37V283ZM458.222 268.294C458.222 267.972 458.318 267.7 458.512 267.478C458.712 267.256 459.006 267.145 459.393 267.145C459.779 267.145 460.073 267.256 460.273 267.478C460.474 267.7 460.574 267.972 460.574 268.294C460.574 268.616 460.474 268.885 460.273 269.1C460.073 269.314 459.779 269.422 459.393 269.422C459.006 269.422 458.712 269.314 458.512 269.1C458.318 268.885 458.222 268.616 458.222 268.294ZM463.82 277.081C463.82 275.942 464.042 274.918 464.486 274.009C464.937 273.099 465.56 272.397 466.355 271.903C467.157 271.409 468.07 271.162 469.094 271.162C470.677 271.162 471.955 271.71 472.929 272.806C473.91 273.901 474.401 275.359 474.401 277.178V277.317C474.401 278.449 474.183 279.466 473.746 280.368C473.316 281.263 472.697 281.962 471.887 282.463C471.085 282.964 470.161 283.215 469.116 283.215C467.54 283.215 466.262 282.667 465.281 281.571C464.307 280.476 463.82 279.025 463.82 277.221V277.081ZM465.818 277.317C465.818 278.606 466.115 279.641 466.71 280.422C467.311 281.202 468.113 281.593 469.116 281.593C470.126 281.593 470.928 281.199 471.522 280.411C472.116 279.616 472.414 278.506 472.414 277.081C472.414 275.806 472.109 274.775 471.501 273.987C470.899 273.192 470.097 272.795 469.094 272.795C468.113 272.795 467.322 273.185 466.72 273.966C466.119 274.746 465.818 275.864 465.818 277.317ZM479.559 271.377L479.623 272.838C480.511 271.721 481.671 271.162 483.104 271.162C485.56 271.162 486.799 272.548 486.82 275.319V283H484.833V275.309C484.826 274.471 484.633 273.851 484.253 273.45C483.881 273.049 483.297 272.849 482.502 272.849C481.858 272.849 481.292 273.021 480.805 273.364C480.318 273.708 479.938 274.159 479.666 274.718V283H477.679V271.377H479.559Z" fill="#D9DAE4"/>
</svg>
